<svg xmlns="http://www.w3.org/2000/svg" width="__MARKER_WIDTH__" height="__MARKER_HEIGHT__" viewBox="0 0 30 42" role="img" aria-label="Client base map marker">
  <path d="M15 1C7.82 1 2 6.82 2 14c0 8.68 9.76 19.73 12.3 22.44.38.41 1.02.41 1.4 0C18.24 33.73 28 22.68 28 14 28 6.82 22.18 1 15 1Z" fill="__MARKER_FILL__" stroke="__MARKER_STROKE__" stroke-width="2"/>
  <path d="M9 19V13.2L15 8.9 21 13.2V19H17.7V15.4H12.3V19Z" fill="#ffffff"/>
  <path d="M17.8 8.7C19.3 9.5 20.4 10.8 21 12.3M19.4 6.3C21.7 7.4 23.3 9.3 24 11.7" fill="none" stroke="#ffffff" stroke-width="1.9" stroke-linecap="round"/>
</svg>
