<svg xmlns="http://www.w3.org/2000/svg" width="__MARKER_WIDTH__" height="__MARKER_HEIGHT__" viewBox="0 0 30 42" role="img" aria-label="Client base map marker">
  <path d="M15 1C7.82 1 2 6.82 2 14c0 8.68 9.76 19.73 12.3 22.44.38.41 1.02.41 1.4 0C18.24 33.73 28 22.68 28 14 28 6.82 22.18 1 15 1Z" fill="__MARKER_FILL__" stroke="__MARKER_STROKE__" stroke-width="2"/>
  <path d="M10.6 17.8V13.9L15 10.5 19.4 13.9V17.8M12.4 17.8V14.8H17.6V17.8" fill="none" stroke="#ffffff" stroke-width="1.6" stroke-linecap="round" stroke-linejoin="round"/>
  <path d="M18.8 10.2C19.6 10.9 20.1 11.9 20.3 12.9M20.4 8.7C21.7 9.7 22.5 11.2 22.8 12.9" fill="none" stroke="#ffffff" stroke-width="1.4" stroke-linecap="round"/>
</svg>
