<svg xmlns="http://www.w3.org/2000/svg" width="__MARKER_WIDTH__" height="__MARKER_HEIGHT__" viewBox="0 0 30 42" role="img" aria-label="Router late map marker">
  <path d="M15 1C7.82 1 2 6.82 2 14c0 8.68 9.76 19.73 12.3 22.44.38.41 1.02.41 1.4 0C18.24 33.73 28 22.68 28 14 28 6.82 22.18 1 15 1Z" fill="__MARKER_FILL__" stroke="__MARKER_STROKE__" stroke-width="2"/>
  <circle cx="14" cy="14.6" r="5.3" fill="#ffffff" fill-opacity="0.22"/>
  <path d="M13.8 14.5V11.7M13.8 14.5 11.6 16.2M13.8 14.5 16 15.9" fill="none" stroke="#ffffff" stroke-width="1.55" stroke-linecap="round" stroke-linejoin="round"/>
  <circle cx="13.8" cy="10.8" r="1.15" fill="#ffffff"/>
  <circle cx="10.9" cy="17" r="1.15" fill="#ffffff"/>
  <circle cx="16.8" cy="16.7" r="1.15" fill="#ffffff"/>
  <circle cx="19.6" cy="11.2" r="3" fill="none" stroke="#ffffff" stroke-width="1.4"/>
  <path d="M19.6 11.2V9.8M19.6 11.2 20.7 11.9" fill="none" stroke="#ffffff" stroke-width="1.4" stroke-linecap="round" stroke-linejoin="round"/>
</svg>
