<svg xmlns="http://www.w3.org/2000/svg" width="__MARKER_WIDTH__" height="__MARKER_HEIGHT__" viewBox="0 0 30 42" role="img" aria-label="Router map marker">
  <path d="M15 1C7.82 1 2 6.82 2 14c0 8.68 9.76 19.73 12.3 22.44.38.41 1.02.41 1.4 0C18.24 33.73 28 22.68 28 14 28 6.82 22.18 1 15 1Z" fill="__MARKER_FILL__" stroke="__MARKER_STROKE__" stroke-width="2"/>
  <circle cx="15" cy="13.3" r="2.2" fill="#ffffff"/>
  <path d="M15 11 15 8.4M13 14.2 10.2 15.8M17 14.2 19.8 15.8M15 15.7 15 18.6" fill="none" stroke="#ffffff" stroke-width="2.3" stroke-linecap="round"/>
  <circle cx="15" cy="7.3" r="2" fill="#ffffff"/>
  <circle cx="9.1" cy="16.5" r="2" fill="#ffffff"/>
  <circle cx="20.9" cy="16.5" r="2" fill="#ffffff"/>
  <circle cx="15" cy="19.8" r="2" fill="#ffffff"/>
</svg>
