<svg xmlns="http://www.w3.org/2000/svg" width="__MARKER_WIDTH__" height="__MARKER_HEIGHT__" viewBox="0 0 30 42" role="img" aria-label="Router late map marker">
  <path d="M15 1C7.82 1 2 6.82 2 14c0 8.68 9.76 19.73 12.3 22.44.38.41 1.02.41 1.4 0C18.24 33.73 28 22.68 28 14 28 6.82 22.18 1 15 1Z" fill="__MARKER_FILL__" stroke="__MARKER_STROKE__" stroke-width="2"/>
  <circle cx="11.8" cy="13.7" r="2" fill="#ffffff"/>
  <path d="M11.8 11.5V9.1M10 14.5 7.7 16M13.6 14.5 15.9 16M11.8 16.1V18.4" fill="none" stroke="#ffffff" stroke-width="2.1" stroke-linecap="round"/>
  <circle cx="11.8" cy="8.1" r="1.75" fill="#ffffff"/>
  <circle cx="7" cy="16.5" r="1.75" fill="#ffffff"/>
  <circle cx="16.6" cy="16.5" r="1.75" fill="#ffffff"/>
  <circle cx="11.8" cy="19.3" r="1.75" fill="#ffffff"/>
  <circle cx="20.8" cy="10.8" r="3.2" fill="none" stroke="#ffffff" stroke-width="1.9"/>
  <path d="M20.8 10.8V8.9M20.8 10.8H22.2" fill="none" stroke="#ffffff" stroke-width="1.9" stroke-linecap="round"/>
</svg>
